<svg width="119" height="22" viewBox="0 0 119 22" fill="none" xmlns="http://www.w3.org/2000/svg">
<g clip-path="url(#clip0_1_2428)">
<path d="M76.7223 1.13562L93.7481 1.80366V4.59341L80.3239 3.53256L80.4047 8.09129L83.293 7.77597L83.215 10.0179H80.4047L80.5231 20.1588L77.7506 19.5683L76.7223 1.13562Z" fill="#FFC64F"/>
<path d="M87.8045 17.1474V14.8974L95.7508 14.5928L95.5193 6.74194L84.6551 7.42869L84.8462 19.702H96.9029L97.5166 16.9202L87.8045 17.1474ZM87.6888 9.33395H93.102L93.2931 11.7362H87.6888V9.33395Z" fill="#FFC64F"/>
<path d="M107.974 8.21963L107.678 5.80933L98.8652 6.48539L98.6122 14.5153L106.144 13.922L106.273 17.0512H100.187L99.5893 19.5015H109.635L108.443 11.0067L101.422 11.4663L101.549 8.30246L107.974 8.21963Z" fill="#FFC64F"/>
<path d="M95.7427 5.03972L95.8907 1.75829L118.666 1.4884L119 3.48986L113.167 3.45245L114.319 19.5015H112.61L110.305 3.50055L95.7427 5.03972Z" fill="#FFC64F"/>
<path d="M9.93549 2.15918L15.5829 2.33822V17.1661L24.5548 14.7184L24.8051 21.145H11.0095L9.93549 2.15918Z" fill="#FFC64F"/>
<path d="M29.9142 7.303L17.0473 6.77124L17.7364 14.7904L21.0393 14.2373L20.6866 12.3374L26.7002 11.8484L26.7352 20.8857L33.0932 20.883L29.9142 7.303ZM20.3744 10.4348L19.8522 8.61237L26.0999 9.13077L26.4471 10.4348H20.3744Z" fill="#FFC64F"/>
<path d="M21.5023 5.53677L22.2694 2.15914L46.0974 1.17578L46.4043 4.15793L35.4486 5.29093L38.7918 21.2999L34.7379 21.2812L32.2588 5.62228L21.5023 5.53677Z" fill="#FFC64F"/>
<path d="M49.6802 21.6981L47.5645 1.32275L53.1715 2.31146L56.8539 16.0384L55.5915 2.28474L59.6319 2.0389L59.8795 20.68L54.2967 20.4208L51.9064 10.336L52.4555 21.1236L49.6802 21.6981Z" fill="#FFC64F"/>
<path d="M70.9537 0L61.0963 2.07093L61.823 20.3566L72.1273 19.1087L70.9537 0ZM65.0963 16.2922L64.1488 5.4539L68.6684 5.64363L68.6764 14.713L65.0963 16.2922Z" fill="#FFC64F"/>
<path d="M9.17103 12.9386L8.44963 1.50708L0 2.15909L1.14402 20.8349L5.19791 20.8536L4.04311 13.7002L9.17103 12.9386ZM3.03637 5.90548H5.63936L5.98661 10.2478L3.64473 10.189L3.03637 5.90548Z" fill="#FFC64F"/>
<path d="M46.2105 6.02307L38.1592 7.50345L40.3262 20.7147L42.5792 20.696L41.4648 14.6275L44.4716 14.9107L44.8269 21.9973H47.4164L46.2105 6.02307ZM41.2037 12.5218L40.8349 9.22968L43.7663 8.66318L44.3181 12.7276L41.2037 12.5218Z" fill="#FFC64F"/>
<path d="M18.0352 1.34143L20.8724 2.06025L19.8576 5.3871L17.0742 5.41649L18.0352 1.34143Z" fill="#FFC64F"/>
</g>
<defs>
<clipPath id="clip0_1_2428">
<rect width="119" height="22" fill="white"/>
</clipPath>
</defs>
</svg>
